<svg version="1.0" xmlns="http://www.w3.org/2000/svg" width="933.333" height="933.333" viewBox="0 0 700 700"><path d="M310.7 47.6c-.1.1-7.4.5-16.2.9-8.8.3-17.6.8-19.5 1-1.9.3-7 .7-11.2 1-4.2.3-9.3.7-11.2 1-2 .3-5.1.7-6.8.9-6.6.9-19.4 2.8-21.3 3.3-1.1.2-3.3.6-5 .9-7.1 1.2-30.5 7.8-39.4 11C119.5 90.1 78.2 137.2 62.4 202c-.2.8-.8 3.3-1.3 5.5-1.4 5.4-4.9 24.8-5.6 31.4-.4 3-.8 6.1-1 7-.3 1.7-1.3 12-2.1 21.1-2.6 31.5-2.6 144.9 0 161 .2 1.4.7 6.1 1.1 10.5.8 10.5 2.2 20.6 5.1 37.5 3.7 21.8 12.7 48.5 22.6 66.9 4.2 7.8 13.3 22.2 16.9 26.5 2.7 3.3 6.8 7.8 12 13.3 26.3 27.6 62.5 46.3 106.9 55.2 3 .6 6.6 1.4 8 1.6 8 1.7 28.2 4.1 50 6 26.3 2.3 130.9 2.3 149 .1 1.4-.2 6.6-.7 11.5-1.1 5-.3 12.4-1.1 16.5-1.6 4.1-.6 9.3-1.2 11.5-1.5 2.2-.2 4.9-.6 6.1-.9 1.2-.3 3.9-.7 6-1 2.1-.4 5.5-1 7.4-1.5 1.9-.5 4.9-1.1 6.5-1.4 1.7-.3 7.8-1.9 13.5-3.6 5.8-1.7 11-3.2 11.5-3.4 5.2-1.5 20.7-8.2 29.6-12.7 28.3-14.5 53.3-37.9 70-65.5 10.6-17.6 20.2-42.6 25.5-66.4 1.6-7.4 2.4-12.1 4.3-24.5 1.7-11.4 2-13.7 2.6-21.5.4-4.1.8-8.6 1.1-10 2.6-16 2.6-133.1-.1-162-4.6-50.9-11.3-78.8-26.5-109.6-11.1-22.6-24-39.2-43.6-56.6-5-4.4-20.8-15.8-21.9-15.8-.5 0-1.6-.6-2.4-1.4-3.6-3.1-23-12.2-36.7-17.2-8.5-3-33.2-9.6-41.4-10.9-1.9-.3-6-1-9-1.5s-8-1.2-11-1.5c-3-.4-6.6-.8-8-1-4.9-.8-23.3-2.2-40-3.1-10.5-.6-95.8-1.3-96.3-.8z"/></svg>