<svg width="226" height="76" fill="none" xmlns="http://www.w3.org/2000/svg"><path d="M37.578 68.437s-26.56-7.9-26.56-46.538V7.098h53.09v14.801c0 37.291-26.53 46.538-26.53 46.538Z" fill="#4FB84F"/><path d="M78.88 36.791v-20.93h12.803v1.513a2.86 2.86 0 0 1-2.876 2.876H83.95v4.419h6.387v1.513a2.905 2.905 0 0 1-2.906 2.906h-3.48v7.78h-5.07v-.077ZM99.704 25.32h2.225a2.616 2.616 0 0 0 1.952-.697 2.443 2.443 0 0 0 .696-1.922c0-1.165-.393-1.906-1.225-2.21a5.148 5.148 0 0 0-1.953-.302h-1.725v5.116l.03.015ZM94.59 36.79v-20.93h7.295c1.379-.06 2.759.103 4.086.484a5.57 5.57 0 0 1 2.815 2.255 6.694 6.694 0 0 1 1.044 3.814c0 1.16-.297 2.301-.863 3.314a5.005 5.005 0 0 1-2.3 2.346c.287.403.55.822.787 1.256l4.086 7.34h-5.705l-3.739-7.007h-2.39v7.083h-5.116v.045ZM113.87 36.791v-20.93h13.106v4.389h-7.99v3.814h6.386v4.388h-6.386v3.95h8.384v4.39h-13.5ZM130.669 36.791v-20.93h13.106v4.389h-7.991v3.814h6.387v4.388h-6.387v3.95h8.385v4.39h-13.5ZM152.599 32.403h2.119a5.57 5.57 0 0 0 4.207-1.514 6.37 6.37 0 0 0 1.513-4.54 6.182 6.182 0 0 0-1.513-4.54 5.536 5.536 0 0 0-4.162-1.514h-2.134v12.108h-.03Zm-5.131 4.389V15.86h7.431a10.931 10.931 0 0 1 7.9 2.784 9.993 9.993 0 0 1 2.906 7.643 10.13 10.13 0 0 1-2.906 7.718 10.933 10.933 0 0 1-7.9 2.785h-7.431ZM173.212 26.198a6.381 6.381 0 0 0 1.604 4.54 5.221 5.221 0 0 0 4.041 1.786 5.163 5.163 0 0 0 4.04-1.786 6.54 6.54 0 0 0 1.605-4.54 5.878 5.878 0 0 0-1.605-4.299 5.288 5.288 0 0 0-4.04-1.695 5.24 5.24 0 0 0-4.041 1.695 6.053 6.053 0 0 0-1.604 4.299Zm-5.297 0a10.4 10.4 0 0 1 3.026-7.568 10.595 10.595 0 0 1 7.855-3.026 10.775 10.775 0 0 1 7.855 3.026 10.416 10.416 0 0 1 3.027 7.568 10.744 10.744 0 0 1-3.027 7.809 10.946 10.946 0 0 1-11.943 2.338 10.94 10.94 0 0 1-6.718-10.147M192.205 36.791l1.725-20.93h5.57l3.027 8.853 1.044 3.481a82.296 82.296 0 0 1 1.044-3.48l3.027-8.854h5.554l1.695 20.93h-5.13l-.651-9.428v-1.514a11.976 11.976 0 0 1 0-1.392v-.515a96.488 96.488 0 0 1-1.165 3.512l-2.21 6.053h-4.389l-2.225-6.053-1.165-3.512a22.614 22.614 0 0 1 0 3.512l-.651 9.428h-5.1v-.09Z" fill="#000"/><path d="M52.97 22.02H31.51v12.29h21.46v3.692c0 6.205-1.74 11.245-11.2 11.29H31.51v16.24a29.379 29.379 0 0 0 6.053 3.026s26.59-9.277 26.59-46.613v-11.2c0 6.205-2.784 11.154-11.244 11.275" fill="#045433"/><path d="m78.44 57.843 1.212-14.68h3.904l2.134 6.22.742 2.422c.257-1 .514-1.771.726-2.422l2.134-6.22h3.905l1.165 14.68h-3.556l-.424-6.598a8.774 8.774 0 0 1 0-1.135v-1.378c-.348 1.03-.606 1.862-.833 2.467l-1.513 4.253h-3.027l-1.513-4.253-.833-2.467V51.2l-.438 6.599H78.44v.045ZM96.148 50.412a7.218 7.218 0 0 1 2.225-5.327 8.172 8.172 0 0 1 11.017 0 7.21 7.21 0 0 1 2.18 5.327 7.571 7.571 0 0 1-2.18 5.479 7.684 7.684 0 0 1-8.457 1.739 7.687 7.687 0 0 1-4.74-7.218h-.045Zm3.738 0a4.54 4.54 0 0 0 1.135 3.133 3.623 3.623 0 0 0 2.86 1.256 3.705 3.705 0 0 0 2.861-1.256 4.54 4.54 0 0 0 1.135-3.133 4.149 4.149 0 0 0-1.135-3.026 3.797 3.797 0 0 0-2.861-1.226 3.722 3.722 0 0 0-2.86 1.226 3.974 3.974 0 0 0-1.135 3.026ZM113.825 57.843v-14.68h5.387a5.948 5.948 0 0 1 3.602.999 3.316 3.316 0 0 1 1.347 2.875 3.645 3.645 0 0 1-1.695 3.118 2.747 2.747 0 0 1 1.726 1.301 4.115 4.115 0 0 1-.999 5.343 7.04 7.04 0 0 1-3.996 1.09h-5.372v-.046Zm3.556-8.99h1.862a1.102 1.102 0 0 0 .953-.393 1.36 1.36 0 0 0 .348-.953 1.256 1.256 0 0 0-.348-.909 1.377 1.377 0 0 0-.984-.348h-1.785v2.603h-.046Zm0 5.948h2.18a1.514 1.514 0 0 0 1.18-.424c.26-.303.4-.69.394-1.09.009-.399-.132-.787-.394-1.089a1.522 1.522 0 0 0-1.18-.439h-2.134v3.027l-.046.015ZM127.127 57.843v-14.68h3.602v14.68h-3.602ZM133.756 57.843v-14.68h3.602v11.593h5.978v3.027l-9.58.06ZM145.077 57.843v-14.68h9.202v3.027h-5.6v2.648h4.54v3.027h-4.54v2.77h5.902v3.027l-9.504.181Z" fill="#000"/></svg>