<svg width="64" height="64" fill="none" xmlns="http://www.w3.org/2000/svg"><path d="M53.47 10.198c-5.185-5.17-12.648-5.755-21.77-5.755-9.123 0-16.617.585-21.819 5.77C4.68 15.4 4.174 22.862 4.174 32s.57 16.6 5.723 21.755c5.154 5.154 12.648 5.707 21.803 5.707 9.154 0 16.6-.49 21.786-5.707 5.186-5.218 5.724-12.648 5.724-21.787 0-9.138-.522-16.585-5.74-21.77ZM29.66 42.182a.332.332 0 0 1-.332.332h-4.743a.332.332 0 0 1-.332-.332V29.897a.332.332 0 0 1 .332-.332h4.743a.332.332 0 0 1 .332.332v12.285Zm9.202 0a.349.349 0 0 1-.348.332h-4.475a.364.364 0 0 1-.347-.316V31.62c0-1.834-.111-3.73-1.06-4.743a5.977 5.977 0 0 0-3.952-1.043h-8.127a.332.332 0 0 0-.332.332v16.016a.347.347 0 0 1-.332.332h-4.458a.348.348 0 0 1-.348-.332V21.77a.348.348 0 0 1 .348-.332H28.3c3.383 0 6.893.158 8.648 1.897s1.897 5.265 1.897 8.648l.016 10.198Zm9.201 0a.347.347 0 0 1-.332.332h-4.49a.332.332 0 0 1-.332-.332V21.77a.332.332 0 0 1 .332-.332h4.474a.332.332 0 0 1 .332.332l.016 20.41Z" fill="#2A3333"/></svg>