<svg width="76" height="76" fill="none" xmlns="http://www.w3.org/2000/svg"><path d="M63.783 11.957C57.636 5.833 48.798 5.138 38 5.138c-10.798 0-19.664.692-25.81 6.83-6.146 6.139-6.767 14.988-6.767 25.79 0 10.803.624 19.641 6.77 25.78C18.34 69.676 27.187 70.3 38 70.3c10.814 0 19.66-.621 25.806-6.763 6.147-6.143 6.767-14.98 6.767-25.78 0-10.798-.612-19.663-6.79-25.802ZM35.6 49.801a.395.395 0 0 1-.395.396h-5.562a.395.395 0 0 1-.395-.396V35.27a.395.395 0 0 1 .395-.395h5.534a.395.395 0 0 1 .395.395l.028 14.533Zm10.877 0a.395.395 0 0 1-.395.396h-5.3a.396.396 0 0 1-.415-.396V37.261c0-2.186-.13-4.435-1.257-5.565-.973-.977-2.767-1.186-4.668-1.245h-9.59a.396.396 0 0 0-.394.395v18.956a.397.397 0 0 1-.415.396h-5.3a.395.395 0 0 1-.396-.396V25.656a.395.395 0 0 1 .395-.395h15.25c3.991 0 8.161.182 10.22 2.241 2.06 2.06 2.25 6.233 2.25 10.23l.015 12.07Zm10.898 0a.395.395 0 0 1-.396.396h-5.308a.396.396 0 0 1-.395-.396V25.656a.395.395 0 0 1 .395-.395h5.293a.395.395 0 0 1 .395.395l.016 24.146Z" fill="#FF6900"/><path d="M35.178 34.87h-5.534a.395.395 0 0 0-.395.395v14.537a.395.395 0 0 0 .395.396h5.534a.395.395 0 0 0 .395-.396V35.27a.394.394 0 0 0-.395-.4ZM51.672 50.198h5.293a.396.396 0 0 0 .395-.396V25.656a.396.396 0 0 0-.395-.395h-5.293a.395.395 0 0 0-.395.395v24.146a.396.396 0 0 0 .395.396Z" fill="#fff"/><path d="M18.743 50.198h5.289a.394.394 0 0 0 .415-.396V30.85a.395.395 0 0 1 .395-.396h9.6c1.882.048 3.696.27 4.669 1.246 1.126 1.13 1.253 3.379 1.257 5.565v12.537a.394.394 0 0 0 .415.396h5.288a.395.395 0 0 0 .395-.396V37.723c0-3.996-.181-8.158-2.249-10.229-2.067-2.071-6.217-2.241-10.225-2.241H18.743a.396.396 0 0 0-.395.395v24.154a.396.396 0 0 0 .395.396Z" fill="#fff"/></svg>