<svg width="288" height="92" fill="none" xmlns="http://www.w3.org/2000/svg"><path d="M84.174 13.861C76.558 6.246 65.518 5.4 52.1 5.4s-24.458.867-32.114 8.502c-7.656 7.636-8.402 18.616-8.402 32.054 0 13.438.766 24.438 8.422 32.074 7.656 7.636 18.636 8.401 32.094 8.401 13.458 0 24.458-.765 32.094-8.401 7.636-7.636 8.482-18.636 8.482-32.074 0-13.438-.846-24.458-8.502-32.094ZM49.118 60.924a.503.503 0 0 1-.504.504h-6.91a.505.505 0 0 1-.524-.504V42.792a.504.504 0 0 1 .524-.483h6.91a.504.504 0 0 1 .504.483v18.132Zm13.519 0a.503.503 0 0 1-.504.504h-6.588a.503.503 0 0 1-.504-.504V45.351c0-2.74-.16-5.52-1.571-6.93a8.764 8.764 0 0 0-5.802-1.552H35.74a.503.503 0 0 0-.504.504v23.551a.503.503 0 0 1-.504.504h-6.527a.504.504 0 0 1-.504-.504V30.905a.504.504 0 0 1 .504-.503h18.978c4.976 0 10.074.221 12.713 2.8 2.639 2.579 2.8 7.737 2.8 12.713l-.06 15.01Zm13.559 0a.504.504 0 0 1-.504.504h-6.588a.504.504 0 0 1-.504-.504V30.905a.504.504 0 0 1 .504-.503h6.588a.504.504 0 0 1 .504.503v30.02Z" fill="#DF6919"/><path d="M48.614 42.309h-6.91a.504.504 0 0 0-.524.483v18.132a.504.504 0 0 0 .524.504h6.91a.503.503 0 0 0 .504-.504V42.792a.504.504 0 0 0-.504-.483ZM69.104 61.428h6.588a.504.504 0 0 0 .504-.504V30.905a.504.504 0 0 0-.504-.503h-6.588a.504.504 0 0 0-.504.503v30.02a.504.504 0 0 0 .504.503Z" fill="#fff"/><path d="M28.206 61.428h6.588a.504.504 0 0 0 .504-.504V37.373a.504.504 0 0 1 .503-.504h11.927a8.764 8.764 0 0 1 5.803 1.551c1.41 1.41 1.57 4.19 1.57 6.93v15.574a.504.504 0 0 0 .505.504h6.588a.504.504 0 0 0 .503-.504v-15.01c0-4.975-.221-10.073-2.8-12.712-2.579-2.64-7.736-2.8-12.713-2.8H28.206a.503.503 0 0 0-.504.503v30.02a.504.504 0 0 0 .504.503Z" fill="#fff"/><path d="m117.577 56.411 3.808 9.53h-1.148l-1.068-2.72h-4.029l-1.088 2.72h-1.229l3.828-9.53h.926Zm1.29 6.044-1.713-4.392-1.752 4.392h3.465ZM127.127 66.001v-.765a3.244 3.244 0 0 1-2.196.947 2.338 2.338 0 0 1-2.418-2.438V59.07h1.109v4.533a1.546 1.546 0 0 0 .966 1.519c.198.08.411.119.625.113a2.645 2.645 0 0 0 2.015-.987V59.07h1.108V66h-1.209ZM134.4 59.07v.887h-2.357v4.03a1.138 1.138 0 0 0 .334.874 1.146 1.146 0 0 0 .875.334 2.6 2.6 0 0 0 1.148-.362v.967a3.568 3.568 0 0 1-1.37.322 2.016 2.016 0 0 1-2.015-2.015v-4.15h-1.329v-.886h1.269v-2.015h1.108v2.015h2.337ZM137.14 56.049v3.787a3.284 3.284 0 0 1 2.196-.926 2.329 2.329 0 0 1 1.742.69 2.343 2.343 0 0 1 .676 1.748V66h-1.108v-4.513a1.536 1.536 0 0 0-.949-1.518 1.528 1.528 0 0 0-.623-.114 2.598 2.598 0 0 0-2.014.988V66h-1.088V56.05h1.168ZM146.73 58.91a3.645 3.645 0 1 1-3.345 3.545 3.349 3.349 0 0 1 3.345-3.545Zm0 6.346c1.289 0 2.196-1.128 2.196-2.72 0-1.592-.907-2.7-2.196-2.7-1.29 0-2.216 1.108-2.216 2.7s.906 2.72 2.216 2.72ZM152.855 59.07v.847a2.554 2.554 0 0 1 1.913-1.008c.232.006.462.04.685.101v.988a3.014 3.014 0 0 0-.745-.101 2.415 2.415 0 0 0-1.853 1.088V66h-1.088v-6.93h1.088ZM157.509 56.411a.662.662 0 0 1 .657.415.676.676 0 0 1 .048.27.669.669 0 0 1-.705.665.628.628 0 0 1-.627-.403.629.629 0 0 1-.038-.262.641.641 0 0 1 .665-.685Zm.564 2.68v6.93h-1.108v-6.95l1.108.02ZM163.673 59.957h-3.727v-.886h5.097v.665l-3.868 5.379h4.029V66h-5.459v-.665l3.928-5.379ZM169.234 58.91c1.712 0 2.841 1.41 2.841 3.404.009.161.009.323 0 .484h-4.856a2.426 2.426 0 0 0 .679 1.762 2.42 2.42 0 0 0 1.739.736 3.746 3.746 0 0 0 2.014-.665v1.008a4.832 4.832 0 0 1-2.175.544 3.406 3.406 0 0 1-3.365-3.728 3.277 3.277 0 0 1 .809-2.435 3.274 3.274 0 0 1 2.314-1.11Zm0 .866a2.138 2.138 0 0 0-2.015 2.236h3.848c-.02-1.31-.745-2.236-1.833-2.236ZM178.341 66.001v-.624a2.862 2.862 0 0 1-2.015.806 3.262 3.262 0 0 1-3.062-3.728 3.232 3.232 0 0 1 .756-2.493 3.235 3.235 0 0 1 2.346-1.133 2.941 2.941 0 0 1 2.015.786v-3.566h1.108V66h-1.148Zm-1.773-.765a2.478 2.478 0 0 0 1.773-.826v-3.727a2.498 2.498 0 0 0-1.773-.847c-1.27 0-2.156 1.108-2.156 2.7s.866 2.7 2.156 2.7ZM188.293 56.411a2.92 2.92 0 0 1 3.103 2.942 2.783 2.783 0 0 1-2.015 2.76l2.418 3.888h-1.25l-2.316-3.767h-1.652V66h-1.229v-9.59h2.941Zm-.161 4.876a2.013 2.013 0 0 0 2.015-2.015 2.015 2.015 0 0 0-2.015-2.014H186.5v4.029h1.632ZM196.009 58.91c1.693 0 2.821 1.41 2.821 3.404a3.9 3.9 0 0 1 0 .484h-4.936a2.426 2.426 0 0 0 .679 1.762 2.417 2.417 0 0 0 1.739.736 3.806 3.806 0 0 0 2.014-.665v1.008a4.893 4.893 0 0 1-2.176.544 3.405 3.405 0 0 1-3.364-3.728 3.283 3.283 0 0 1 3.223-3.545Zm0 .866a2.134 2.134 0 0 0-2.014 2.236h3.848c-.101-1.31-.846-2.236-1.874-2.236h.04ZM202.194 65.296c.826 0 1.451-.463 1.451-1.148 0-1.612-3.506-.846-3.506-3.244a2.14 2.14 0 0 1 1.528-1.943c.282-.084.578-.108.87-.072.639.006 1.27.143 1.853.403v1.149a3.304 3.304 0 0 0-1.773-.544c-.806 0-1.39.443-1.39 1.088 0 1.551 3.526.785 3.526 3.243a2.2 2.2 0 0 1-.805 1.542 2.196 2.196 0 0 1-1.673.473 4.655 4.655 0 0 1-2.015-.504v-1.047a3.344 3.344 0 0 0 1.934.604ZM209.145 58.91c1.692 0 2.821 1.41 2.821 3.404.009.161.009.323 0 .484h-4.916a2.425 2.425 0 0 0 .7 1.784 2.414 2.414 0 0 0 1.778.714 3.809 3.809 0 0 0 2.015-.665v1.008a4.9 4.9 0 0 1-2.176.544 3.408 3.408 0 0 1-3.282-2.316 3.398 3.398 0 0 1-.163-1.412 3.283 3.283 0 0 1 3.223-3.545Zm0 .866a2.154 2.154 0 0 0-2.015 2.236h3.848c-.1-1.31-.846-2.236-1.873-2.236h.04ZM214.706 56.049V66h-1.149V56.05h1.149ZM218.03 56.049V66h-1.108V56.05h1.108ZM222.946 58.91c1.712 0 2.82 1.41 2.82 3.404v.484h-4.936a2.437 2.437 0 0 0 2.438 2.498 3.809 3.809 0 0 0 2.015-.665v1.008a4.836 4.836 0 0 1-2.176.544 3.41 3.41 0 0 1-2.516-1.116 3.419 3.419 0 0 1-.869-2.612 3.284 3.284 0 0 1 3.224-3.545Zm0 .866a2.154 2.154 0 0 0-2.015 2.236h3.868c-.121-1.31-.866-2.236-1.893-2.236h.04ZM228.527 59.07v.847a2.51 2.51 0 0 1 1.893-1.008c.232.006.462.04.685.101v.988a2.994 2.994 0 0 0-.725-.101 2.378 2.378 0 0 0-1.853 1.088V66h-1.109v-6.93h1.109ZM113.145 26.312h4.211l4.533 6.85 4.573-6.85h4.191l-6.548 9.469 6.85 9.791h-4.332l-4.734-7.192-4.715 7.192h-4.351l6.85-9.791-6.528-9.47ZM134.984 25.667a2.015 2.015 0 1 1 0 4.03 2.015 2.015 0 0 1 0-4.03Zm1.793 5.903v14.103h-3.545V31.57h3.545ZM144.252 45.915a4.132 4.132 0 0 1-4.453-4.17c0-2.922 2.74-4.936 6.749-4.936h1.733v-.544a2.34 2.34 0 0 0-.832-1.69 2.336 2.336 0 0 0-1.807-.527 9.588 9.588 0 0 0-4.654 1.35v-3.022a12.087 12.087 0 0 1 5.077-1.148 5.14 5.14 0 0 1 5.641 5.157v9.187h-3.425v-1.108a6.55 6.55 0 0 1-4.029 1.45Zm1.168-2.78a4.17 4.17 0 0 0 2.861-1.37v-2.74a13.029 13.029 0 0 0-1.571 0c-2.015 0-3.385.947-3.385 2.296a2.017 2.017 0 0 0 2.095 1.814ZM161.78 31.228a6.992 6.992 0 0 1 7.212 7.353 7.21 7.21 0 0 1-12.312 5.1 7.211 7.211 0 0 1-2.113-5.1 6.981 6.981 0 0 1 1.991-5.261 6.987 6.987 0 0 1 5.222-2.092Zm0 11.685c2.015 0 3.526-1.753 3.526-4.332 0-2.579-1.451-4.331-3.526-4.331-2.075 0-3.546 1.773-3.546 4.352 0 2.578 1.451 4.31 3.546 4.31ZM175.54 31.57v1.128a6.144 6.144 0 0 1 4.029-1.47 4.535 4.535 0 0 1 4.03 2.115 6.46 6.46 0 0 1 4.633-2.115 4.551 4.551 0 0 1 4.654 4.916v9.428h-3.707v-8.864a2.169 2.169 0 0 0-.577-1.644 2.175 2.175 0 0 0-1.599-.693 4.03 4.03 0 0 0-2.84 1.43v9.771h-3.587v-8.864a2.184 2.184 0 0 0-.598-1.653 2.2 2.2 0 0 0-1.618-.684 4.029 4.029 0 0 0-2.82 1.43v9.771h-3.586V31.47l3.586.101ZM198.366 25.667a2.015 2.015 0 1 1 0 4.03 2.015 2.015 0 0 1 0-4.03Zm1.793 5.903v14.103h-3.586V31.57h3.586ZM216.257 42.973c2.014 0 3.586-1.128 3.586-2.74 0-4.029-9.368-2.014-9.368-8.683 0-3.304 2.84-5.58 6.89-5.58 1.779.012 3.539.374 5.178 1.067v3.324a9.652 9.652 0 0 0-4.916-1.45c-2.015 0-3.486 1.027-3.486 2.579 0 3.828 9.369 1.893 9.369 8.683 0 3.385-2.922 5.742-7.011 5.742a13.213 13.213 0 0 1-5.621-1.29v-3.384a10.072 10.072 0 0 0 5.379 1.732ZM234.832 31.57v2.881h-4.029v6.488a2.014 2.014 0 0 0 2.015 2.014 4.427 4.427 0 0 0 2.014-.564v2.942a8.377 8.377 0 0 1-2.941.584 4.41 4.41 0 0 1-4.694-4.513v-6.95h-2.398V31.57h2.398v-4.03h3.586v4.03h4.049ZM243.918 31.228a6.992 6.992 0 0 1 7.213 7.353 7.215 7.215 0 0 1-7.213 7.213 7.215 7.215 0 0 1-7.212-7.213 6.997 6.997 0 0 1 1.99-5.261 6.991 6.991 0 0 1 5.222-2.092Zm0 11.685c2.015 0 3.546-1.753 3.546-4.332 0-2.579-1.47-4.331-3.546-4.331-2.075 0-3.545 1.773-3.545 4.352 0 2.578 1.39 4.31 3.545 4.31ZM257.679 31.57v1.41a4.742 4.742 0 0 1 3.445-1.752c.401-.003.8.044 1.189.14v3.204a4.474 4.474 0 0 0-1.27-.161 4.388 4.388 0 0 0-3.364 1.813v9.348h-3.586V31.47l3.586.101ZM270.513 31.228c3.666 0 6.164 2.9 6.164 7.01.029.437.029.874 0 1.31h-9.489a4.028 4.028 0 0 0 4.251 3.587 8.505 8.505 0 0 0 4.171-1.31v3.002a11.404 11.404 0 0 1-4.755 1.088 7.03 7.03 0 0 1-7.192-7.454 6.788 6.788 0 0 1 .395-2.746 6.809 6.809 0 0 1 6.455-4.487Zm-.141 2.78a3.262 3.262 0 0 0-3.244 3.223h6.044a3.043 3.043 0 0 0-2.8-3.223Z" fill="#000"/></svg>