<svg width="273" height="65" fill="none" xmlns="http://www.w3.org/2000/svg"><path fill-rule="evenodd" clip-rule="evenodd" d="M259.405 19.048h.779l.337.091.338.156.338.143.324.195.26.22.273.234.259.273.221.298.195.312.143.312.129.337.091.364v1.532l-.091.35-.129.364-.143.312-.195.311-.221.3-.259.259-.273.246-.26.221-.324.195-.338.143-.338.13-.337.09h-1.532l-.364-.09-.351-.13-.311-.143-.312-.195-.298-.22-.286-.247-.221-.26-.247-.299-.168-.311-.143-.312-.143-.363-.104-.351v-1.532l.104-.364.143-.337.143-.312.168-.312.247-.298.221-.273.286-.234.298-.22.312-.195.311-.143.351-.156.364-.09h.753Zm0 .559h.649l.299.09.285.104.299.117.234.17.272.194.195.195.221.22.195.273.142.234.143.273.104.285.091.325v1.285l-.091.286-.104.298-.143.286-.142.273-.195.247-.221.22-.195.208-.272.182-.234.169-.299.142-.285.091-.299.078-.364.117H258.743l-.312-.078-.299-.09-.259-.143-.273-.17-.247-.181-.26-.247-.194-.22-.195-.247-.143-.273-.156-.286-.117-.298-.077-.286v-1.285l.077-.325.117-.286.156-.272.143-.234.195-.273.194-.22.234-.195.247-.195.273-.169.259-.117.299-.104.312-.09h.311l.377-.078Zm-1.61 5.194v-4.026H260.547l.143.078.143.065.13.104.091.117.104.143V22.515l-.078.104v.065l-.065.078-.104.065h-.26.169l.117.078.117.09v.13l.078.143V24.827h-.974l-.104-.156v-1.234h-1.195v1.532l-1.064-.169Zm.973-3.337v1.051h1.247l.091-.078.078-.065.065-.078v-.506l-.065-.104-.078-.065h-1.338v-.155Z" fill="#055FAA"/><path d="M16.49 32.565h3.545c2.53-.176 5.054.427 7.232 1.727a6.207 6.207 0 0 1 2.377 5.363 5.31 5.31 0 0 1-2.156 4.57 10.388 10.388 0 0 1-6.245 1.584H9.829V24.255h18.178v4.376H16.49v3.934Zm0 8.622h3.402c2.09 0 3.13-.753 3.13-2.285 0-1.299-1.04-1.961-3.13-1.961H16.49v4.246Zm16.737-16.88h17.867v4.597h-11.18v3.415h10.388v4.401H39.914v4.26h11.492v4.881H33.227V24.307Zm41.55 21.554h-6.621V29.553h-5.194v6.635a30.07 30.07 0 0 1-.442 5.999 4.156 4.156 0 0 1-2.038 2.817 10.83 10.83 0 0 1-5.194.91c-.84-.01-1.68-.092-2.506-.247v-4.35h1a2.596 2.596 0 0 0 1.922-.61c.44-.638.638-1.411.558-2.182V24.242h18.555l-.04 21.62ZM85.88 32.617h3.557c2.54-.185 5.075.418 7.259 1.727a6.181 6.181 0 0 1 2.389 5.363 5.195 5.195 0 0 1-2.194 4.57 10.193 10.193 0 0 1-6.22 1.584h-11.4V24.255h6.647l-.038 8.362Zm0 8.622h3.402c2.09 0 3.142-.753 3.142-2.285 0-1.299-1.052-1.961-3.142-1.961h-3.364l-.038 4.246Zm14.828-16.88h6.687v21.554h-6.648l-.039-21.554Zm31.747 0v21.554h-6.232V33.968l-8.064 11.841h-6.31V24.255h6.31v11.933l8.141-11.933 6.155.104Zm-4.895-5.324a4.543 4.543 0 0 1-1.792 2.987 5.492 5.492 0 0 1-3.532 1.142 5.583 5.583 0 0 1-3.518-1.142 4.565 4.565 0 0 1-1.779-2.987h2.597a2.593 2.593 0 0 0 2.7 1.74 2.6 2.6 0 0 0 2.792-1.844l2.532.104Zm19.399 5.324h12.491a6.854 6.854 0 0 1 4.791 1.532 5.022 5.022 0 0 1 1.675 3.83 4.932 4.932 0 0 1-1.194 3.286 5.323 5.323 0 0 1-2.324 1.44 6.113 6.113 0 0 1 3.414 1.91 5.192 5.192 0 0 1 1.104 3.428 6.009 6.009 0 0 1-.779 3.012 5.675 5.675 0 0 1-2.142 2.117c-.813.4-1.694.642-2.597.714-.99.147-1.987.242-2.987.285h-11.517l.065-21.554Zm6.726 8.453h2.895a3.378 3.378 0 0 0 2.195-.532 2.015 2.015 0 0 0 .597-1.559 1.926 1.926 0 0 0-.597-1.48 3.43 3.43 0 0 0-2.143-.506h-2.947v4.077Zm0 8.479h3.428a3.896 3.896 0 0 0 2.428-.597 2.174 2.174 0 0 0 .701-1.663 1.956 1.956 0 0 0-.701-1.532 3.896 3.896 0 0 0-2.454-.584h-3.389l-.013 4.376Zm16.698-16.88h17.893v4.596h-11.167v3.415h10.388v4.402h-10.388v4.259H188.6v4.882h-18.178l-.039-21.554Zm20.256 0h20.269v5.323h-6.817v16.231h-6.648V29.58h-6.804V24.41Zm23.281 0h17.841v4.596h-11.18v3.415h10.388v4.402h-10.388v4.259h11.518v4.882H213.92V24.411Zm21.723 0h11.063a7.492 7.492 0 0 1 5.48 1.558 6.398 6.398 0 0 1 1.792 4.882 6.7 6.7 0 0 1-1.935 5.103 8.545 8.545 0 0 1-6.012 1.844h-3.636v7.998h-6.713l-.039-21.385Zm6.713 9.18h1.623a4.31 4.31 0 0 0 2.701-.65 2.169 2.169 0 0 0 .779-1.726 2.347 2.347 0 0 0-.688-1.727 3.442 3.442 0 0 0-2.519-.701h-1.896v4.804Z" fill="#055FAA"/></svg>