<svg width="299" height="72" fill="none" xmlns="http://www.w3.org/2000/svg"><g clip-path="url(#a)" fill="#C3106C"><path d="M40.573 15.558a19.91 19.91 0 1 0 0 39.82 19.91 19.91 0 0 0 0-39.82Zm0 35.397a15.458 15.458 0 1 1 15.444-15.402 15.501 15.501 0 0 1-15.444 15.402Z"/><path d="m49.689 34.13-14.221-6.868a1.552 1.552 0 0 0-2.205 1.422V42.45a1.564 1.564 0 0 0 2.205 1.422l14.22-6.883a1.563 1.563 0 0 0 0-2.858ZM85.711 39.947c-3.058-7.238-6.073-14.079-9.343-20.336h-8.533v31.784h6.044V27.731c1.82 3.783 4.764 10.723 8.917 20.749h4.906c3.584-8.348 6.627-15.273 9.244-20.749v23.664h6.157V19.611h-8.191a234.206 234.206 0 0 0-9.201 20.336ZM117.424 27.774c-7.494 0-11.305 3.015-11.305 11.903 0 4.522 1.009 7.466 3.057 9.343a12.486 12.486 0 0 0 8.718 2.845 34.811 34.811 0 0 0 9.158-1.266l-.953-4.48c-2.449.626-4.966.95-7.494.967a7.677 7.677 0 0 1-4.835-1.265c-.953-.811-1.422-2.176-1.422-4.551h15.799c.185-5.603-.483-8.846-2.389-10.85-1.906-2.006-4.281-2.646-8.334-2.646Zm-5.076 9.201c.327-3.584 1.621-4.707 5.29-4.707a4.82 4.82 0 0 1 3.584 1.01 5.99 5.99 0 0 1 1.08 3.697h-9.954ZM143.321 32.709c1.94-.01 3.867.328 5.689.995l1.336-4.835a22.266 22.266 0 0 0-7.395-1.095c-3.953 0-6.897.91-8.959 2.745-2.062 1.834-3.157 4.65-3.157 9.158 0 4.508.995 7.466 3.043 9.343 2.048 1.878 5.006 2.845 8.96 2.845a20.794 20.794 0 0 0 7.395-1.18l-1.337-4.836a15.533 15.533 0 0 1-5.689 1.095 6.925 6.925 0 0 1-4.92-1.422c-.953-.995-1.422-2.716-1.422-5.688.355-6.5 1.92-7.125 6.456-7.125ZM170.654 28.599a11.718 11.718 0 0 0-4.821-.825 15.228 15.228 0 0 0-6.669 1.593v-10.88h-5.902v32.908h5.902V34.941c0-1.28 2.047-2.047 4.664-2.047 3.442 0 4.864 1.18 4.864 5.873v12.628h5.916V38.312c.014-5.603-1.508-8.66-3.954-9.713ZM189.924 46.93c-2.617 0-3.67-1.323-3.67-4.053v-9.77h8.05v-4.92h-8.007v-6.244l-5.902 2.318v3.925h-4.053v4.92h4.053V43.36c0 3.285.612 5.518 1.906 6.699a9.088 9.088 0 0 0 6.186 1.735 20.821 20.821 0 0 0 6.67-1.039l-1.038-4.465a15.003 15.003 0 0 1-4.195.64ZM215.636 29.78c-1.621-1.324-4.266-2.006-8.007-2.006-3.262.009-6.51.424-9.67 1.237l1.095 4.65a22.374 22.374 0 0 1 7.338-1.137c2.532 0 4.153.313 4.907.995.753.683 1.151 1.735 1.151 3.783a33.27 33.27 0 0 0-6.015-.626 13.369 13.369 0 0 0-7.196 1.536c-1.564 1.01-2.332 3.015-2.332 6.073 0 3.057.711 4.82 2.19 5.916 1.479 1.095 4.195 1.593 8.063 1.593 3.714.028 7.41-.504 10.965-1.579v-13.41c0-3.371-.811-5.703-2.489-7.026Zm-3.186 17.15a19.78 19.78 0 0 1-4.863.54 6.87 6.87 0 0 1-3.627-.64c-.568-.455-.853-1.223-.853-2.773 0-2.844.953-3.328 4.522-3.328a24.76 24.76 0 0 1 4.821.413v5.788ZM226.587 45.053c-2.674 0-3.556.412-3.556 3.185 0 3.015.882 3.556 3.556 3.556 2.673 0 3.683-.541 3.683-3.556 0-2.73-.882-3.185-3.683-3.185ZM245.771 38.724a72.577 72.577 0 0 0 9.002-10.538h-6.784a117.874 117.874 0 0 1-8.077 9.955V18.488h-5.689v32.907h5.689V39.82a95.657 95.657 0 0 1 8.817 11.52h6.741c-4.992-7.651-8.49-11.89-9.699-12.615ZM278.366 28.186h-20.237v4.92h11.491c-2.261 3.741-7.793 11.548-12.216 17.152v1.137h20.706v-4.92h-11.761c3.086-3.883 8.76-11.86 12.074-17.15l-.057-1.139Z"/></g><defs><clipPath id="a"><path fill="#fff" d="M0 0h299v71.006H0z"/></clipPath></defs></svg>