<svg xmlns="http://www.w3.org/2000/svg" viewBox="0 0 1145 1100"><defs><style>.cls-1{fill:#f73939}</style></defs><g id="Objects"><path class="cls-1" d="M893.75 228.75a453 453 0 1 0 97.35 144.4 452.59 452.59 0 0 0-97.35-144.4Zm-40.11 602.39A397.57 397.57 0 1 1 970.1 550a395 395 0 0 1-116.46 281.14Z"/><path class="cls-1" d="M757.33 365.17a34.48 34.48 0 0 0-48.77 0L572.5 501.22l-136.06-136a34.49 34.49 0 0 0-48.77 48.77L523.72 550l-136 136.06a34.49 34.49 0 0 0 48.77 48.77L572.5 598.78l136.06 136.05a34.49 34.49 0 0 0 48.77-48.77L621.28 550l136.05-136.06a34.48 34.48 0 0 0 0-48.77Z"/></g></svg>