<svg width="230" height="98" fill="none" xmlns="http://www.w3.org/2000/svg"><path fill-rule="evenodd" clip-rule="evenodd" d="M51.092 80.166a31.284 31.284 0 1 1 0-62.569h127.817a31.284 31.284 0 0 1 0 62.57H51.092Z" fill="#C10E1A"/><path d="M178.909 81.926H51.092a33.142 33.142 0 0 1 0-66.284h127.817a33.124 33.124 0 0 1 32.317 33.113 33.124 33.124 0 0 1-32.317 33.113v.058ZM51.092 19.357a29.506 29.506 0 0 0-11.523 56.968 29.505 29.505 0 0 0 11.523 2.023h127.817a29.504 29.504 0 0 0 0-58.99H51.092Z" fill="#fff"/><path fill-rule="evenodd" clip-rule="evenodd" d="M34.355 53.262h10.969a4.321 4.321 0 0 0 1.603 2.757 6.14 6.14 0 0 0 3.559.84 6.1 6.1 0 0 0 3.109-.684 2.112 2.112 0 0 0 1.134-1.955c0-1.303-1.584-2.34-4.752-3.109l-1.407-.274c-2.601-.665-4.654-1.27-6.199-1.838a16.328 16.328 0 0 1-3.265-1.525 9.523 9.523 0 0 1-3.03-3.5 10.11 10.11 0 0 1-1.017-4.634 9.775 9.775 0 0 1 3.91-8.212 17.598 17.598 0 0 1 10.813-2.991c3.771-.206 7.51.794 10.676 2.854a10.95 10.95 0 0 1 4.32 8.115H54.084a3.324 3.324 0 0 0-1.368-2.308 5.416 5.416 0 0 0-3.168-.782 4.752 4.752 0 0 0-2.698.606 1.955 1.955 0 0 0-.88 1.819c0 1.153 1.545 2.131 4.614 2.913l.626.157 1.955.508c2.82.59 5.54 1.585 8.076 2.953 1.414.88 2.59 2.095 3.422 3.538a9.778 9.778 0 0 1 1.075 4.674 10.656 10.656 0 0 1-4.067 8.955 18.751 18.751 0 0 1-11.732 3.128 17.715 17.715 0 0 1-11.067-3.128 11.83 11.83 0 0 1-4.595-8.819l.079-.058ZM94.42 38.265V64.23h-9.425v-3.91a11.908 11.908 0 0 1-4.027 3.402 11.127 11.127 0 0 1-5.045 1.114 10.775 10.775 0 0 1-4.224-.802 8.037 8.037 0 0 1-3.148-2.326 8.388 8.388 0 0 1-1.622-3.383 33.047 33.047 0 0 1-.45-6.609V38.265h10.304v13.413a7.527 7.527 0 0 0 .782 4.087 3.05 3.05 0 0 0 2.718 1.134 3.343 3.343 0 0 0 2.894-1.31 6.667 6.667 0 0 0 .978-3.91V38.264H94.42Zm2.19 25.966V29.036h10.402V64.23H96.611Zm31.284-12.924a8.051 8.051 0 0 0-1.036-4.537 3.563 3.563 0 0 0-3.128-1.486 3.91 3.91 0 0 0-3.305 1.447 7.992 7.992 0 0 0-1.153 4.576 7.45 7.45 0 0 0 1.055 4.418 3.66 3.66 0 0 0 3.188 1.467 3.712 3.712 0 0 0 3.167-1.486 7.561 7.561 0 0 0 1.075-4.4h.137Zm-18.594 23.346V38.265h9.131v3.324a9.462 9.462 0 0 1 3.539-3.05 11.183 11.183 0 0 1 4.849-.959 10.092 10.092 0 0 1 8.095 3.774 15.226 15.226 0 0 1 3.128 9.953 15.308 15.308 0 0 1-3.128 10.07 10.325 10.325 0 0 1-8.369 3.734 10.014 10.014 0 0 1-4.204-.802 8.442 8.442 0 0 1-3.069-2.502v12.846h-9.972Zm46.926-21.997a39.697 39.697 0 0 1-3.91 1.212c-2.581.684-3.911 1.603-3.911 2.737a2.076 2.076 0 0 0 .763 1.721c.626.46 1.395.682 2.17.626a5.126 5.126 0 0 0 3.754-1.193 5.241 5.241 0 0 0 1.174-3.793v-.821a3.324 3.324 0 0 0 0-.49h-.04Zm.959 11.575h10.363v-.743a2.36 2.36 0 0 1-.841-.919 2.71 2.71 0 0 1-.294-1.27V46.926a10.452 10.452 0 0 0-.743-4.478 7.07 7.07 0 0 0-2.561-2.815 12.844 12.844 0 0 0-4.204-1.604 27.977 27.977 0 0 0-5.866-.586 19.335 19.335 0 0 0-10.304 2.229 7.485 7.485 0 0 0-3.578 6.608h10.07a2.665 2.665 0 0 1 .997-1.955 4.163 4.163 0 0 1 2.287-.723 6.003 6.003 0 0 1 2.816.508 1.795 1.795 0 0 1 .899 1.643c0 1.33-1.642 2.17-4.888 2.522-.938 0-1.701.176-2.248.274a19.548 19.548 0 0 0-8.916 2.659 6.795 6.795 0 0 0-2.366 5.69 7.818 7.818 0 0 0 2.405 6.1 9.774 9.774 0 0 0 6.784 2.17 14.707 14.707 0 0 0 5.143-.84 12.925 12.925 0 0 0 4.282-2.581l.645 2.483h.118Zm11.555 0V29.036h10.305v17.167l6.706-7.938h11.556l-9.6 9.58 10.93 16.386h-12.241l-5.65-9.288-1.78 1.819v7.469h-10.226Z" fill="#fff"/></svg>