<svg width="287" height="67" fill="none" xmlns="http://www.w3.org/2000/svg"><path d="M28.942 32.977h-5.39v7.01h3.266c.863 0 1.593.823 2.124 1.434v-8.444Zm-1.54-16.475L38.5 26.99a1.674 1.674 0 0 1 .53 1.235v13.448A1.726 1.726 0 0 1 37.32 43.4H21.852a1.7 1.7 0 0 1-1.712-1.7V31.28a1.7 1.7 0 0 1 1.712-1.7h8.79a1.7 1.7 0 0 1 1.698 1.7v8.708h3.306V28.955l-9.4-8.895-9.412 8.882V46.85h20.512a1.7 1.7 0 0 1 1.712 1.7v1.698H15.161a1.7 1.7 0 0 1-1.699-1.699V28.225a1.7 1.7 0 0 1 .61-1.328l11.033-10.408a1.686 1.686 0 0 1 2.323 0" fill="#1F1E21"/><path d="M258.444 49.851h15.134v-3.624h-7.793a8.796 8.796 0 0 0-1.606.106 10.16 10.16 0 0 0 1.474-1.58l7.686-9.625v-2.376h-14.603v3.61h7.222c.536.01 1.073-.013 1.606-.066v.067a14.423 14.423 0 0 0-1.447 1.58l-7.713 9.625.04 2.283Zm-16.383 0h4.262v-7.474h2.204l4.54 7.474h4.885l-6.067-9.386v-.066l5.404-7.647h-4.727l-4.128 6.027h-2.111V26.034h-4.262v23.817Zm-7.833 0h4.262v-4.288h-4.262v4.288Zm-90.276-8.55a5.076 5.076 0 0 1 1.489-3.595 5.084 5.084 0 1 1-1.489 3.595Zm-4.328 0a9.396 9.396 0 0 0 5.513 9.001 9.398 9.398 0 0 0 12.574-12.125 9.403 9.403 0 0 0-8.794-5.837 8.96 8.96 0 0 0-9.293 8.961Zm-18.587 8.55h4.262v-7.965c0-3.08 1.912-5.603 4.939-5.603 2.137 0 2.655 1.407 2.655 3.492v10.13h4.261v-11.06c0-4.527-2.177-6.505-5.974-6.505a6.64 6.64 0 0 0-6.067 3.624c.023-.402.023-.805 0-1.208v-2.004h-4.062l-.014 17.1Zm-19.608 0h4.261v-7.965c0-3.253 1.952-5.67 4.939-5.67 2.138 0 2.655 1.408 2.655 3.492v10.13h4.262V38.845c0-4.527-2.177-6.505-5.974-6.505a6.757 6.757 0 0 0-5.895 3.505c.064-.475.095-.954.093-1.434v-8.377h-4.328l-.013 23.817Zm-18.48-8.55a8.788 8.788 0 0 0 9.293 8.948 9.836 9.836 0 0 0 7.036-2.774l-1.633-3.027a7.66 7.66 0 0 1-5.031 2.19 5.193 5.193 0 0 1-5.31-5.376 5.084 5.084 0 0 1 5.19-5.31 6.492 6.492 0 0 1 4.421 1.858l1.912-2.92a9.083 9.083 0 0 0-6.638-2.55 8.856 8.856 0 0 0-9.293 8.961m-13.41-2.11a4.102 4.102 0 0 1 4.13-3.625 3.373 3.373 0 0 1 3.425 3.625h-7.554Zm-4.433 2.11a8.788 8.788 0 0 0 9.293 8.948 10.873 10.873 0 0 0 6.81-2.456L79.47 44.74a7.966 7.966 0 0 1-4.898 1.885 4.846 4.846 0 0 1-5.125-4.527h11.776c.076-.546.12-1.095.133-1.646 0-4.527-2.656-8.125-7.581-8.125a8.47 8.47 0 0 0-8.722 8.974Zm-9.944 8.55h4.288V29.765h7.82v-3.73H47.303v3.73h7.82l-.014 20.086Z" fill="#CF6C48"/><path d="M204.623 49.851h4.261v-7.673c0-2.855 1.407-5.948 4.395-5.948 2.004 0 2.31 1.58 2.31 3.425v10.196h4.261v-7.673c0-2.987 1.447-5.948 4.355-5.948 1.951 0 2.35 1.474 2.35 3.425v10.196h4.235V38.846c0-4.488-2.018-6.506-5.603-6.506a6.852 6.852 0 0 0-5.841 3.532h-.067a4.7 4.7 0 0 0-4.965-3.532 6.561 6.561 0 0 0-5.602 3.625h-.067c.045-.402.067-.805.067-1.209v-2.004h-4.089v17.1Zm-17.06-8.55a5.093 5.093 0 0 1 1.392-3.762 5.09 5.09 0 0 1 3.686-1.582 5.086 5.086 0 0 1 5.078 5.344 5.093 5.093 0 0 1-1.392 3.763 5.089 5.089 0 0 1-5.692 1.17 5.089 5.089 0 0 1-3.072-4.933Zm-4.328 0a9.395 9.395 0 0 0 5.513 9.001 9.397 9.397 0 0 0 13.074-6.627 9.397 9.397 0 0 0-9.294-11.335 8.962 8.962 0 0 0-9.293 8.962Zm-17.67 4.833v-16.37h3.558c4.766 0 7.965 2.842 7.965 8.152 0 5.31-3.093 8.218-7.965 8.218h-3.558Zm-4.328 3.717h8.125c7.341 0 12.147-4.42 12.147-11.948 0-7.528-4.806-11.882-12.147-11.882h-8.125v23.83Z" fill="#1F1E21"/></svg>