<svg width="347" height="52" fill="none" xmlns="http://www.w3.org/2000/svg"><g clip-path="url(#a)"><mask id="b" style="mask-type:luminance" maskUnits="userSpaceOnUse" x="0" y="0" width="347" height="52"><path d="M346.433 0H.753v51.354h345.68V0Z" fill="#fff"/></mask><g mask="url(#b)"><mask id="c" style="mask-type:luminance" maskUnits="userSpaceOnUse" x="167" y="0" width="180" height="52"><path d="M346.433 0H167.192v51.354h179.241V0Z" fill="#fff"/></mask><g mask="url(#c)"><path d="M192.798 51.354a25.557 25.557 0 0 0 14.226-4.327 25.665 25.665 0 0 0 9.43-11.524 25.736 25.736 0 0 0 1.458-14.835 25.7 25.7 0 0 0-7.008-13.147A25.585 25.585 0 0 0 197.793.493a25.539 25.539 0 0 0-14.794 1.462 25.624 25.624 0 0 0-11.492 9.457 25.733 25.733 0 0 0 3.185 32.421 25.57 25.57 0 0 0 18.106 7.521Z" fill="#fff"/><path fill-rule="evenodd" clip-rule="evenodd" d="M218.409 25.678a25.71 25.71 0 0 1-4.891 15.074 25.595 25.595 0 0 1-12.791 9.316 25.52 25.52 0 0 1-15.809 0 25.589 25.589 0 0 1-12.791-9.315 25.71 25.71 0 0 1-.016-30.154 25.586 25.586 0 0 1 12.781-9.328 25.518 25.518 0 0 1 15.808-.017l-5.815 18.002h-17.039l-2.087 6.422h17.044l-4.992 15.406h7.04l5.011-15.406h18.547Zm-.804-6.422h-15.68l4.887-15.075a25.722 25.722 0 0 1 10.793 15.075Z" fill="url(#d)"/></g></g><path d="M47.356 28.029h-8.835V16.947h-6.614v27.99h6.614V33.251h8.835v11.686h6.615v-27.99h-6.615v11.082ZM1.605 18.785c0 5.951 2.82 9.46 7.898 13.055L.753 44.931H8.01L17.783 30.3l-3.35-2.27c-4.14-2.78-6.146-4.963-6.146-9.628-.024-4.108 2.881-6.882 8.342-6.882h2.987v33.413h6.743V6.24h-9.773c-9.816 0-14.98 5.059-14.98 12.546ZM80.773 16.947H61.538v2.4c0 6.848-.426 15.708-2.772 20.373h-2.062v11.634h6.102v-6.422h14.808v6.379h6.103V39.715h-2.944V16.947Zm-6.571 22.768h-9.348c1.834-4.238 2.346-11.854 2.346-16.692v-.811h7.002v17.503ZM135.101 16.947h-6.658l-9.304 12.925V16.947h-6.614v27.99h6.614v-13.74l9.773 13.74h7.467l-10.582-15.065 9.304-12.925ZM97.247 16.433c-8.07-.043-11.908 6.12-11.908 14.596 0 9.757 4.786 14.46 13.186 14.46 4.226 0 7.342-1.108 9.304-2.438v-5.39a17.028 17.028 0 0 1-8.706 2.611c-4.824 0-6.657-2.27-6.916-6.935h15.919v-3.508c0-9.758-4.264-13.396-10.879-13.396Zm4.14 11.999h-9.218c.172-4.454 1.795-6.806 4.954-6.806 3.283 0 4.269 2.74 4.269 6.24l-.005.566ZM149.483 40.272c-4.738 0-6.657-3.681-6.657-9.46 0-6.076 2.393-9.2 6.7-9.2 2.23.02 4.417.61 6.356 1.713v-5.61c-1.364-.768-3.829-1.325-7.083-1.325-8.453 0-12.803 6.076-12.803 14.595 0 9.326 4.269 14.504 13.099 14.504 3.03 0 5.208-.557 6.83-1.708v-5.385a10.77 10.77 0 0 1-6.442 1.876ZM256.616 6.268h-25.409v38.67h6.7v-33.42h11.966v33.42h6.7l.043-38.67ZM259.579 39.207l.388.278c.346.164.728.24 1.11.22 1.072 0 1.776-.556 2.111-1.67.335-1.113.557-3.153.665-6.119l.551-14.964h18.919v27.985h-6.6V22.183h-6.7l-.388 10.012a42.134 42.134 0 0 1-.857 7.568c-.443 1.965-1.182 3.405-2.216 4.32-1.033.915-2.495 1.377-4.384 1.387a5.255 5.255 0 0 1-1.886-.278l-.722-.274.009-5.711ZM339.613 45.49c-4.4 0-7.691-1.242-9.873-3.725-2.183-2.483-3.255-6.081-3.217-10.794a18.632 18.632 0 0 1 1.436-7.564 11.426 11.426 0 0 1 4.274-5.121c1.915-1.26 4.281-1.891 7.098-1.891 1.415-.02 2.829.11 4.217.389a9.153 9.153 0 0 1 2.871.96v5.605a12.795 12.795 0 0 0-2.718-1.166 11.744 11.744 0 0 0-3.662-.557 5.903 5.903 0 0 0-4.991 2.333c-1.149 1.523-1.724 3.804-1.724 6.844 0 2.88.519 5.18 1.556 6.901 1.037 1.722 2.738 2.575 5.102 2.559a12.094 12.094 0 0 0 3.666-.48 9.882 9.882 0 0 0 2.771-1.392v5.375c-1.579 1.152-3.848 1.726-6.806 1.723Z" fill="#222"/><path fill-rule="evenodd" clip-rule="evenodd" d="M319.722 20.158c-2.234-2.518-5.118-3.78-8.654-3.782-2.935-.08-5.784 1-7.935 3.004-2.144 1.968-3.457 4.848-3.939 8.64h-3.772V16.951h-6.6v27.985h6.6V33.251h3.719c.367 3.97 1.624 7.01 3.772 9.119a11.362 11.362 0 0 0 8.136 3.114c3.551 0 6.436-1.241 8.654-3.724 2.217-2.483 3.345-6.1 3.383-10.852.013-4.665-1.108-8.248-3.364-10.75Zm-4.787 17.858a4.184 4.184 0 0 1-3.881 2.227 4.31 4.31 0 0 1-3.939-2.227c-.852-1.484-1.278-3.84-1.278-7.064 0-3.226.426-5.6 1.278-7.123a4.301 4.301 0 0 1 3.939-2.222 4.179 4.179 0 0 1 3.881 2.222c.891 1.485 1.334 3.84 1.331 7.065-.003 3.225-.442 5.606-1.316 7.142l-.015-.02Z" fill="#222"/></g><defs><linearGradient id="d" x1="167.197" y1="25.678" x2="218.409" y2="25.678" gradientUnits="userSpaceOnUse"><stop stop-color="#FF5C4D"/><stop offset=".4" stop-color="#EB469F"/><stop offset="1" stop-color="#8341EF"/></linearGradient><clipPath id="a"><path fill="#fff" transform="translate(.753)" d="M0 0h346.039v51.354H0z"/></clipPath></defs></svg>